HIERARCHY
ROOT Hips
{
	OFFSET 0.00000 0.00000 0.00000
	CHANNELS 6 Xposition Yposition Zposition Zrotation Yrotation Xrotation 
	JOINT LHipJoint
	{
		OFFSET 0 0 0
		CHANNELS 3 Zrotation Yrotation Xrotation
		JOINT LeftHip
		{
			OFFSET 1.29432 -1.88279 0.59910
			CHANNELS 3 Zrotation Yrotation Xrotation
			JOINT LeftKnee
			{
				OFFSET 2.63039 -7.22694 0.00000
				CHANNELS 3 Zrotation Yrotation Xrotation
				JOINT LeftAnkle
				{
					OFFSET 2.70674 -7.43672 0.00000
					CHANNELS 3 Zrotation Yrotation Xrotation
					JOINT LeftToe
					{
						OFFSET 0.15066 -0.41394 2.09027
						CHANNELS 3 Zrotation Yrotation Xrotation
						End Site
						{
							OFFSET 0.00000 -0.00000 1.07518
						}
					}
				}
			}
		}
	}
	JOINT RHipJoint
	{
		OFFSET 0 0 0
		CHANNELS 3 Zrotation Yrotation Xrotation
		JOINT RightHip
		{
			OFFSET -1.37068 -1.88279 0.59910
			CHANNELS 3 Zrotation Yrotation Xrotation
			JOINT RightKnee
			{
				OFFSET -2.57023 -7.06166 0.00000
				CHANNELS 3 Zrotation Yrotation Xrotation
				JOINT RightAnkle
				{
					OFFSET -2.76461 -7.59570 0.00000
					CHANNELS 3 Zrotation Yrotation Xrotation
					JOINT RightToe
					{
						OFFSET -0.24175 -0.64785 2.19719
						CHANNELS 3 Zrotation Yrotation Xrotation
						End Site
						{
							OFFSET -0.00000 -0.00000 1.14803
						}
					}
				}
			}
		}
	}
	JOINT lowerback
	{
		OFFSET 0 0 0
		CHANNELS 3 Zrotation Yrotation Xrotation
		JOINT Chest
		{
			OFFSET -0.03138 2.03983 -0.23106
			CHANNELS 3 Zrotation Yrotation Xrotation
			JOINT Chest2
			{
				OFFSET -0.00325 2.06238 -0.06878
				CHANNELS 3 Zrotation Yrotation Xrotation
				JOINT lowerneck
				{
					OFFSET 0 0 0
					CHANNELS 3 Zrotation Yrotation Xrotation
					JOINT Neck
					{
						OFFSET -0.00002 1.75318 0.18090
						CHANNELS 3 Zrotation Yrotation Xrotation
						JOINT Head
						{
							OFFSET 0.08806 1.75856 -0.25387
							CHANNELS 3 Zrotation Yrotation Xrotation
							End Site
							{
								OFFSET 0.02554 1.78597 -0.10684
							}
						}
					}
				}
				JOINT LeftCollar
				{
					OFFSET 0 0 0
					CHANNELS 3 Zrotation Yrotation Xrotation
					JOINT LeftShoulder
					{
						OFFSET 3.09657 1.33597 -0.04414
CHANNELS 3 Zrotation Xrotation Yrotation
						JOINT LeftElbow
						{
OFFSET 0 -5.342980 -0.000000
CHANNELS 3 Zrotation Xrotation Yrotation
							JOINT LeftWrist
							{
OFFSET 0 -3.672620 -0.000000
CHANNELS 3 Zrotation Xrotation Yrotation
								JOINT lhand
								{
									OFFSET 0 0 0
CHANNELS 3 Zrotation Xrotation Yrotation
									JOINT LFingers
									{
OFFSET 0 -0.599300 -0.000000
CHANNELS 3 Zrotation Xrotation Yrotation
										End Site
										{
OFFSET 0 -0.483170 -0.000000
										}
									}
								}
								JOINT LThumb
								{
OFFSET 0 0.000000 0.000000
CHANNELS 3 Zrotation Xrotation Yrotation
									End Site
									{
OFFSET 0 -0.490550 0.490550
									}
								}
							}
						}
					}
				}
				JOINT RightCollar
				{
					OFFSET 0 0 0
					CHANNELS 3 Zrotation Yrotation Xrotation
					JOINT RightShoulder
					{
						OFFSET -3.16460 1.32273 -0.23382
CHANNELS 3 Zrotation Xrotation Yrotation
						JOINT RightElbow
						{
OFFSET 0 -5.549670 0.033480
CHANNELS 3 Zrotation Xrotation Yrotation
							JOINT RightWrist
							{
OFFSET 0 -3.694010 0.000000
CHANNELS 3 Zrotation Xrotation Yrotation
								JOINT rhand
								{
									OFFSET 0 0 0
CHANNELS 3 Zrotation Xrotation Yrotation
									JOINT RFingers
									{
OFFSET 0 -0.638110 0.000000
CHANNELS 3 Zrotation Xrotation Yrotation
										End Site
										{
OFFSET 0 -0.514460 0.000000
										}
									}
								}
								JOINT RThumb
								{
OFFSET 0 0.000000 0.000000
CHANNELS 3 Zrotation Xrotation Yrotation
									End Site
									{
OFFSET 0 -0.522320 0.522320
									}
								}
							}
						}
					}
				}
			}
		}
	}
}
MOTION
Frames: 11
Frame Time: 0.008333333333333333
9.647700 18.139400 -19.343400 -0.031400 -13.505300 4.420800 0.000000 0.000000 0.000000 -16.993800 0.107900 -11.035600 7.894500 16.041100 52.181800 -0.009100 -2.250100 2.396900 0.076500 -1.784300 -4.910000 0.000000 0.000000 0.000000 23.690900 7.290400 -13.601800 -1.403100 -7.493000 21.184400 -0.321600 2.905600 -10.104900 -0.003000 0.352700 -0.969100 0.373800 -0.894700 0.910400 1.464900 -1.199900 1.109700 1.293700 -0.604300 0.649400 -0.820700 1.774400 -9.484200 -2.708800 3.210700 23.547200 -0.451000 1.123900 8.958000 0.000000 -0.000000 0.000000 0.784400 7.236100 -9.759100 13.767800 -22.401800 2.739000 15.061900 31.027100 -29.571100 0.000000 0.000000 0.000000 -7.125000 0.000000 0.000000 -18.297500 59.474700 6.603500 0.000000 -0.000000 0.000000 -4.964500 5.186800 12.207000 -14.723800 -23.759900 -3.113800 -20.495900 13.621800 -17.302500 0.000000 0.000000 0.000000 7.125000 0.000000 -0.000000 4.899200 11.636100 3.824800
9.616681 18.140266 -19.262647 -0.148457 -13.624176 4.432670 0.000000 0.000000 0.000000 -16.780222 0.098023 -12.016155 8.132859 16.215688 53.039146 -0.005721 -1.440495 1.029651 0.066969 -1.669323 -4.592622 0.000000 0.000000 0.000000 23.916522 6.644726 -13.425912 -1.380832 -7.435728 21.012757 -0.329398 3.518089 -10.206101 -0.001354 0.229145 -0.629454 0.444762 -0.779896 1.104743 1.492799 -1.040301 0.885464 1.286855 -0.523201 0.306981 -1.045975 1.691135 -9.043527 -2.598848 3.098236 23.519647 -0.391475 1.067581 8.859572 0.000000 0.000000 0.000000 0.771317 7.252996 -9.393721 13.686181 -22.284310 2.707981 14.412154 30.858057 -30.101970 0.000000 0.000000 0.000000 -7.125000 0.000000 0.000000 -19.373883 59.825263 7.174573 0.000000 0.000000 0.000000 -5.194541 4.933105 12.447438 -14.588548 -23.569802 -3.059561 -20.459596 13.774554 -17.480381 0.000000 0.000000 0.000000 7.125000 0.000000 0.000000 4.933598 11.454060 3.870375
9.585589 18.137029 -19.188271 -0.383581 -13.621393 4.334241 0.000000 0.000000 0.000000 -16.412737 -0.039817 -12.812022 8.352529 16.371955 53.821885 0.000004 -0.566615 -0.352842 0.036478 -1.202486 -3.306438 0.000000 0.000000 0.000000 24.279048 6.482538 -12.953131 -1.371024 -7.410263 20.936610 -0.350754 3.522062 -10.532005 -0.000514 0.144213 -0.396077 0.408868 -0.602870 0.190813 1.623010 -0.829180 1.499653 1.426221 -0.422094 1.447342 -1.039072 1.510762 -9.177877 -2.766441 2.879282 23.153793 -0.470100 0.955489 8.759678 0.000000 0.000000 0.000000 0.783518 6.121969 -9.401967 13.635856 -22.211673 2.688909 13.325093 30.391388 -30.653435 0.000000 0.000000 0.000000 -7.125000 0.000000 0.000000 -20.944820 60.085755 7.919561 0.000000 0.000000 0.000000 -5.369102 3.585355 12.030916 -14.471692 -23.404989 -3.013017 -21.030563 14.141531 -18.033281 0.000000 0.000000 0.000000 7.125000 0.000000 0.000000 4.593343 10.798648 3.661858
9.555803 18.132564 -19.109063 -0.458505 -13.519665 4.118200 0.000000 0.000000 0.000000 -16.244052 -0.363455 -13.432371 8.547637 16.507142 54.511316 0.008672 0.233393 -1.794090 0.011096 -0.551483 -1.515753 0.000000 0.000000 0.000000 24.473177 6.638780 -12.240933 -1.367741 -7.401743 20.911188 -0.375840 3.037563 -10.939732 -0.004136 0.365567 -1.004409 0.440586 -0.572909 -0.085535 1.630782 -0.798538 1.789321 1.410754 -0.407540 1.898442 -1.106428 1.463065 -9.460228 -2.831722 2.854706 23.307042 -0.481183 0.926011 8.865687 0.000000 0.000000 0.000000 0.942429 5.999236 -10.365133 14.020536 -22.762065 2.837249 14.786231 29.726342 -30.105641 0.000000 0.000000 0.000000 -7.125000 0.000000 0.000000 -18.986273 59.910839 7.077505 0.000000 0.000000 0.000000 -5.477935 2.775711 11.980312 -14.409490 -23.317063 -2.988312 -21.665686 14.391960 -18.696055 0.000000 0.000000 0.000000 7.125000 0.000000 0.000000 4.224491 10.013880 3.433287
9.526138 18.127885 -19.025507 -0.329242 -13.425360 3.872534 0.000000 0.000000 0.000000 -16.322164 -0.691736 -14.005657 8.708909 16.616397 55.077376 0.021025 0.834192 -3.130382 0.001107 -0.216152 -0.593923 0.000000 0.000000 0.000000 24.452395 6.717558 -11.563752 -1.368451 -7.403547 20.916640 -0.398599 2.571188 -11.316536 -0.013081 0.712184 -1.957214 0.672599 -0.764922 0.789620 1.418105 -1.030351 1.328709 1.079282 -0.519542 0.931263 -1.355503 1.639353 -9.444690 -2.662208 3.126902 23.985128 -0.353504 1.033458 9.094092 0.000000 0.000000 0.000000 1.287357 7.539773 -11.916236 14.897207 -23.994786 3.188764 14.887081 27.407315 -30.685852 0.000000 0.000000 0.000000 -7.125000 0.000000 0.000000 -19.353181 60.472074 7.511116 0.000000 0.000000 0.000000 -5.520433 2.958432 12.757574 -14.298517 -23.159625 -2.944630 -22.232806 14.484131 -19.595230 0.000000 0.000000 0.000000 7.125000 0.000000 0.000000 3.927817 8.982794 3.272030
9.495873 18.123638 -18.943964 -0.187024 -13.436442 3.725377 0.000000 0.000000 0.000000 -16.421355 -0.882917 -14.692678 8.834104 16.699615 55.514416 0.038106 1.327037 -4.392036 0.009272 -0.482405 -1.325947 0.000000 0.000000 0.000000 24.411831 6.690832 -11.089997 -1.376013 -7.423048 20.974978 -0.421864 2.372301 -11.677482 -0.015483 0.776021 -2.132807 0.792465 -0.867688 1.564825 1.233599 -1.145177 0.840429 0.836777 -0.573604 -0.007480 -1.637268 1.750903 -9.365702 -2.461161 3.304924 24.612671 -0.219446 1.098773 9.292395 0.000000 0.000000 0.000000 1.618720 9.068452 -13.494692 15.786466 -25.228871 3.555262 14.529475 25.193734 -31.625561 0.000000 0.000000 0.000000 -7.125000 0.000000 0.000000 -20.447723 61.274611 8.305450 0.000000 0.000000 0.000000 -5.653169 3.104833 13.562362 -14.103796 -22.882556 -2.868548 -22.615439 14.529779 -20.441543 0.000000 0.000000 0.000000 7.125000 0.000000 0.000000 3.752604 8.031122 3.198346
9.465267 18.120225 -18.868573 -0.239823 -13.595031 3.741848 0.000000 0.000000 0.000000 -16.304888 -0.929104 -15.563676 8.926800 16.760355 55.836593 0.060559 1.757852 -5.627004 0.024390 -1.006443 -2.766473 0.000000 0.000000 0.000000 24.559952 6.755181 -10.814629 -1.394338 -7.470292 21.116338 -0.450096 2.390440 -12.073269 -0.004567 0.412020 -1.132239 0.642219 -0.657239 1.216097 1.282976 -0.874426 0.978643 0.960836 -0.438705 0.330600 -1.811054 1.599869 -9.590822 -2.392611 3.126076 24.811984 -0.182896 1.001099 9.400611 0.000000 0.000000 0.000000 1.743645 9.061675 -14.509463 16.221950 -25.820422 3.742258 16.579032 25.365171 -30.985201 0.000000 0.000000 0.000000 -7.125000 0.000000 0.000000 -17.718393 61.176196 7.108415 0.000000 0.000000 0.000000 -5.927811 2.366920 13.676291 -13.939114 -22.647557 -2.804647 -22.401820 14.644574 -20.762903 0.000000 0.000000 0.000000 7.125000 0.000000 0.000000 3.917882 7.724202 3.362665
9.434693 18.116849 -18.795062 -0.433865 -13.871642 3.837006 0.000000 0.000000 0.000000 -16.039872 -0.919916 -16.508400 8.989550 16.801006 56.053880 0.088278 1.821217 -6.587151 0.018059 -0.866645 -2.381845 0.000000 0.000000 0.000000 24.837277 6.845856 -10.657635 -1.421577 -7.540041 21.325450 -0.478712 2.565722 -12.439619 -0.000380 0.112576 -0.309338 0.928249 -0.579248 1.234178 1.231896 -0.765889 0.877362 0.748219 -0.382936 0.210986 -2.019521 1.645443 -9.680390 -2.200702 3.194210 25.053663 -0.072978 1.027718 9.496753 0.000000 0.000000 0.000000 1.813490 9.158043 -14.369003 16.457464 -26.136976 3.845257 17.355978 25.563152 -30.643979 0.000000 0.000000 0.000000 -7.125000 0.000000 0.000000 -16.611457 61.040593 6.595087 0.000000 0.000000 0.000000 -5.992881 1.935260 14.129363 -13.995442 -22.728228 -2.826397 -21.003560 14.833473 -20.636972 0.000000 0.000000 0.000000 7.125000 0.000000 0.000000 4.799170 8.072943 4.092484
9.405320 18.108184 -18.720028 -0.486632 -14.126376 3.892978 0.000000 0.000000 0.000000 -15.933040 -0.985332 -17.390700 9.024814 16.823707 56.176049 0.126575 1.963834 -7.737616 0.014853 -0.786066 -2.160209 0.000000 0.000000 0.000000 24.950088 6.781392 -10.552968 -1.449217 -7.609790 21.535043 -0.505485 2.824182 -12.759250 -0.000121 -0.040785 0.112014 1.056656 -0.489398 1.131418 1.159981 -0.645973 0.831614 0.600750 -0.322198 0.218784 -1.870752 1.684606 -9.448703 -2.448245 3.270197 24.948044 -0.177818 1.054578 9.422932 0.000000 0.000000 0.000000 1.822674 9.126678 -14.122846 16.636645 -26.376202 3.924537 17.253218 25.408145 -30.585148 0.000000 0.000000 0.000000 -7.125000 0.000000 0.000000 -16.680079 60.959320 6.590929 0.000000 0.000000 0.000000 -5.988635 1.460968 14.179444 -14.057220 -22.816432 -2.850311 -20.124726 15.067326 -20.737740 0.000000 0.000000 0.000000 7.125000 0.000000 0.000000 5.368337 8.097463 4.579339
9.378262 18.095769 -18.646350 -0.452496 -14.224305 3.850238 0.000000 0.000000 0.000000 -15.925238 -1.169331 -18.128642 9.032867 16.828852 56.203815 0.169580 2.086421 -8.824719 0.010131 -0.646195 -1.775861 0.000000 0.000000 0.000000 24.977354 6.656999 -10.362837 -1.476776 -7.678501 21.741922 -0.532657 3.011142 -13.084946 -0.007521 -0.511588 1.405895 1.069513 -0.451338 1.120108 1.073144 -0.594845 0.812359 0.504113 -0.296333 0.204158 -1.753664 1.732867 -9.421622 -2.694112 3.379221 25.030831 -0.270847 1.087822 9.454925 0.000000 0.000000 0.000000 1.759002 8.950875 -13.504583 16.751986 -26.529642 3.975967 16.925742 25.329347 -30.571562 0.000000 0.000000 0.000000 -7.125000 0.000000 0.000000 -17.026564 60.866796 6.694739 0.000000 0.000000 0.000000 -6.007612 0.865381 14.287219 -13.939528 -22.648160 -2.804799 -20.354150 15.199754 -20.723595 0.000000 0.000000 0.000000 7.125000 0.000000 0.000000 5.220823 8.078812 4.454290
9.351735 18.083498 -18.572922 -0.424727 -14.213104 3.740959 0.000000 0.000000 0.000000 -15.919221 -1.412072 -18.755533 9.003769 16.810165 56.103219 0.220497 1.600655 -9.600346 0.006807 -0.528880 -1.453303 0.000000 0.000000 0.000000 25.026717 6.515440 -10.103780 -1.506389 -7.751642 21.962257 -0.562189 3.090841 -13.443720 -0.012589 -0.722649 1.985992 1.032991 -0.415593 1.182621 1.014993 -0.546360 0.814912 0.465059 -0.272130 0.171463 -1.836832 1.674401 -9.358936 -2.732397 3.322311 25.070046 -0.276686 1.049189 9.456327 0.000000 0.000000 0.000000 1.718182 8.824078 -13.137057 16.926833 -26.760972 4.054442 16.666896 25.273032 -30.559466 0.000000 0.000000 0.000000 -7.125000 0.000000 0.000000 -17.298877 60.792709 6.774986 0.000000 0.000000 0.000000 -6.124458 0.362777 14.571170 -13.896474 -22.586525 -2.788215 -20.311596 15.120495 -20.525512 0.000000 0.000000 0.000000 7.125000 0.000000 0.000000 5.233295 8.291271 4.442800
